<svg width="500" height="500" viewBox="0 0 500 500" fill="none" xmlns="http://www.w3.org/2000/svg">
<g clip-path="url(#clip0_70_110)">
<rect width="500" height="500" rx="80" fill="#202020"/>
<path d="M104.042 314.065C100.892 314.065 98.2818 313.435 96.2118 312.175C94.1418 310.915 92.5668 309.295 91.4868 307.315C90.4068 305.245 89.8668 302.95 89.8668 300.43C89.8668 296.11 90.9918 292.375 93.2418 289.225C95.4918 286.075 98.5068 283.465 102.287 281.395C106.157 279.235 110.432 277.48 115.112 276.13C119.882 274.69 124.787 273.43 129.827 272.35C134.957 271.27 139.862 270.235 144.542 269.245C149.312 268.165 153.587 267.04 157.367 265.87C161.237 264.7 164.297 263.26 166.547 261.55C168.797 259.84 169.922 257.725 169.922 255.205C169.922 254.035 169.562 253.225 168.842 252.775C168.212 252.235 167.222 251.965 165.872 251.965C163.352 251.965 160.877 252.73 158.447 254.26C156.107 255.7 153.857 257.725 151.697 260.335C149.627 262.855 147.737 265.825 146.027 269.245C144.407 272.575 142.967 276.085 141.707 279.775C141.707 283.285 142.157 286.525 143.057 289.495C143.957 292.375 145.217 294.895 146.837 297.055C148.547 299.215 150.527 300.88 152.777 302.05C155.027 303.13 157.457 303.67 160.067 303.67C161.777 303.67 162.902 304.21 163.442 305.29C164.072 306.28 164.207 307.45 163.847 308.8C163.487 310.06 162.767 311.185 161.687 312.175C160.697 313.255 159.347 313.795 157.637 313.795C154.037 313.795 150.617 312.985 147.377 311.365C144.227 309.655 141.437 307.225 139.007 304.075C136.577 300.925 134.687 297.28 133.337 293.14C131.267 296.65 128.702 300.025 125.642 303.265C122.672 306.505 119.342 309.115 115.652 311.095C112.052 313.075 108.182 314.065 104.042 314.065ZM106.067 303.4C108.317 303.4 110.612 302.77 112.952 301.51C115.382 300.25 117.677 298.495 119.837 296.245C122.087 293.905 124.067 291.295 125.777 288.415C127.487 285.445 128.792 282.295 129.692 278.965C130.142 275.275 130.322 271.81 130.232 268.57C130.232 265.33 129.962 262.45 129.422 259.93C128.882 257.32 127.892 255.295 126.452 253.855C125.102 252.415 123.257 251.695 120.917 251.695C118.937 251.695 117.047 252.235 115.247 253.315C113.537 254.305 111.287 256.15 108.497 258.85C107.687 259.66 106.787 260.155 105.797 260.335C104.807 260.425 103.772 260.11 102.692 259.39C101.612 258.67 100.982 257.86 100.802 256.96C100.622 256.06 100.892 255.16 101.612 254.26C104.672 250.03 108.047 246.835 111.737 244.675C115.517 242.515 119.432 241.435 123.482 241.435C127.892 241.435 131.222 242.47 133.472 244.54C135.812 246.52 137.387 249.175 138.197 252.505C139.097 255.835 139.502 259.48 139.412 263.44C141.482 259.48 143.867 255.88 146.567 252.64C149.357 249.31 152.552 246.61 156.152 244.54C159.752 242.47 163.757 241.435 168.167 241.435C172.127 241.435 175.277 242.605 177.617 244.945C179.957 247.285 181.127 250.345 181.127 254.125C181.127 258.265 180.002 261.775 177.752 264.655C175.502 267.535 172.487 269.92 168.707 271.81C164.927 273.7 160.652 275.32 155.882 276.67C151.112 277.93 146.207 279.055 141.167 280.045C136.127 281.035 131.222 282.025 126.452 283.015C121.682 284.005 117.407 285.175 113.627 286.525C109.847 287.875 106.832 289.54 104.582 291.52C102.332 293.5 101.207 295.975 101.207 298.945C101.207 300.295 101.657 301.375 102.557 302.185C103.547 302.995 104.717 303.4 106.067 303.4ZM157.344 313.795C155.634 313.795 154.509 313.255 153.969 312.175C153.339 311.185 153.204 310.06 153.564 308.8C153.924 307.45 154.644 306.28 155.724 305.29C156.804 304.21 158.199 303.67 159.909 303.67C163.869 303.67 168.369 302.725 173.409 300.835C178.449 298.855 183.849 295.975 189.609 292.195C190.689 291.475 191.679 291.385 192.579 291.925C193.479 292.375 194.154 293.14 194.604 294.22C195.144 295.3 195.324 296.425 195.144 297.595C195.054 298.675 194.559 299.575 193.659 300.295C188.619 303.535 183.849 306.145 179.349 308.125C174.939 310.105 170.889 311.545 167.199 312.445C163.419 313.345 160.134 313.795 157.344 313.795ZM189.609 293.14C191.679 291.97 193.659 290.71 195.549 289.36C197.529 287.92 199.419 286.48 201.219 285.04C204.819 282.25 208.014 279.37 210.804 276.4C213.684 273.43 215.979 270.46 217.689 267.49C219.399 264.52 220.254 261.775 220.254 259.255C220.254 257.005 219.759 255.295 218.769 254.125C217.869 252.865 216.384 252.235 214.314 252.235C213.054 252.235 212.109 251.695 211.479 250.615C210.939 249.535 210.759 248.275 210.939 246.835C211.119 245.395 211.704 244.135 212.694 243.055C213.774 241.975 215.259 241.435 217.149 241.435C220.119 241.435 222.729 242.065 224.979 243.325C227.319 244.495 229.119 246.205 230.379 248.455C231.729 250.615 232.404 253.18 232.404 256.15C232.404 260.2 231.279 264.385 229.029 268.705C226.779 272.935 223.764 277.12 219.984 281.26C216.204 285.4 211.929 289.27 207.159 292.87C205.179 294.49 203.019 296.065 200.679 297.595C198.429 299.125 196.134 300.52 193.794 301.78L189.609 293.14ZM208.419 313.795C205.539 313.795 202.929 313.255 200.589 312.175C198.159 311.185 195.999 309.745 194.109 307.855C192.219 305.965 190.644 303.76 189.384 301.24C188.034 298.72 187.044 295.975 186.414 293.005C185.694 290.035 185.334 286.885 185.334 283.555C185.334 279.235 185.964 274.645 187.224 269.785C188.394 264.835 190.284 260.2 192.894 255.88C195.504 251.56 198.834 248.095 202.884 245.485C206.844 242.785 211.614 241.435 217.194 241.435C218.364 241.435 219.219 241.975 219.759 243.055C220.209 244.135 220.299 245.395 220.029 246.835C219.759 248.275 219.174 249.535 218.274 250.615C217.284 251.695 215.979 252.235 214.359 252.235C212.199 252.235 210.219 252.91 208.419 254.26C206.619 255.61 205.044 257.455 203.694 259.795C202.254 262.045 201.084 264.565 200.184 267.355C199.194 270.055 198.474 272.8 198.024 275.59C197.574 278.38 197.349 280.945 197.349 283.285C197.349 285.895 197.619 288.415 198.159 290.845C198.699 293.275 199.554 295.435 200.724 297.325C201.804 299.125 203.154 300.61 204.774 301.78C206.394 302.86 208.284 303.4 210.444 303.4C213.414 303.4 216.384 302.545 219.354 300.835C222.324 299.035 225.429 296.47 228.669 293.14C231.819 289.81 235.149 285.85 238.659 281.26C242.169 276.67 245.904 271.495 249.864 265.735C253.464 260.605 256.704 256.465 259.584 253.315C262.464 250.165 265.074 247.735 267.414 246.025C269.844 244.315 272.094 243.145 274.164 242.515C276.234 241.885 278.304 241.57 280.374 241.57C281.274 241.57 281.904 242.11 282.264 243.19C282.714 244.18 282.804 245.35 282.534 246.7C282.264 247.96 281.724 249.13 280.914 250.21C280.104 251.2 278.934 251.695 277.404 251.695C276.324 251.695 275.019 252.235 273.489 253.315C272.049 254.395 270.384 256.015 268.494 258.175C266.694 260.245 264.669 262.765 262.419 265.735C260.169 268.705 257.784 272.035 255.264 275.725C250.764 282.295 246.534 288.01 242.574 292.87C238.704 297.64 234.969 301.6 231.369 304.75C227.769 307.81 224.124 310.06 220.434 311.5C216.744 313.03 212.739 313.795 208.419 313.795ZM309.534 313.795C305.754 313.795 302.874 313.075 300.894 311.635C298.914 310.285 297.564 308.53 296.844 306.37C296.214 304.12 296.034 301.69 296.304 299.08C296.664 296.38 297.249 293.815 298.059 291.385L307.104 265.06C307.914 262.63 308.364 260.47 308.454 258.58C308.544 256.6 308.049 255.07 306.969 253.99C305.979 252.82 304.179 252.235 301.569 252.235C298.689 252.235 295.539 253.315 292.119 255.475C288.789 257.635 285.369 260.695 281.859 264.655C278.349 268.615 274.884 273.34 271.464 278.83C268.134 284.23 265.029 290.215 262.149 296.785L257.964 310.015C257.604 311.185 256.929 312.04 255.939 312.58C255.039 313.21 253.554 313.525 251.484 313.525C250.044 313.525 248.694 313.21 247.434 312.58C246.264 311.95 245.949 310.78 246.489 309.07L263.634 255.745C263.994 254.575 263.994 253.63 263.634 252.91C263.364 252.1 262.599 251.695 261.339 251.695C260.169 251.695 259.359 251.2 258.909 250.21C258.459 249.13 258.324 247.96 258.504 246.7C258.774 245.35 259.359 244.18 260.259 243.19C261.249 242.11 262.509 241.57 264.039 241.57C267.099 241.57 269.439 242.11 271.059 243.19C272.679 244.18 273.759 245.575 274.299 247.375C274.839 249.085 275.064 250.975 274.974 253.045C274.884 255.025 274.614 256.96 274.164 258.85L272.139 265.06C274.749 261.28 277.404 257.95 280.104 255.07C282.894 252.1 285.684 249.625 288.474 247.645C291.354 245.575 294.234 244.045 297.114 243.055C300.084 241.975 303.054 241.435 306.024 241.435C310.434 241.435 313.809 242.515 316.149 244.675C318.579 246.745 319.929 249.805 320.199 253.855C320.469 257.905 319.659 262.81 317.769 268.57L309.939 291.655C308.409 296.245 307.824 299.395 308.184 301.105C308.544 302.815 309.939 303.67 312.369 303.67C313.629 303.67 314.529 304.21 315.069 305.29C315.609 306.28 315.789 307.45 315.609 308.8C315.519 310.06 314.934 311.185 313.854 312.175C312.864 313.255 311.424 313.795 309.534 313.795ZM309.614 313.795C308.354 313.795 307.409 313.255 306.779 312.175C306.149 311.185 305.924 310.06 306.104 308.8C306.284 307.45 306.869 306.28 307.859 305.29C308.849 304.21 310.289 303.67 312.179 303.67C314.519 303.67 316.994 302.95 319.604 301.51C322.124 299.98 324.689 297.91 327.299 295.3C329.909 292.6 332.474 289.405 334.994 285.715C337.604 282.025 340.169 278.02 342.689 273.7C343.319 272.44 344.219 271.9 345.389 272.08C346.649 272.17 347.684 272.71 348.494 273.7C349.304 274.6 349.394 275.635 348.764 276.805C345.704 282.835 342.599 288.19 339.449 292.87C336.299 297.46 333.104 301.33 329.864 304.48C326.624 307.54 323.339 309.88 320.009 311.5C316.679 313.03 313.214 313.795 309.614 313.795ZM365.369 314.065C359.789 314.065 355.064 312.94 351.194 310.69C347.324 308.44 344.399 305.335 342.419 301.375C340.529 297.325 339.584 292.78 339.584 287.74C339.584 282.97 340.439 277.93 342.149 272.62C343.859 267.22 346.379 262.18 349.709 257.5C353.129 252.73 357.359 248.86 362.399 245.89C367.529 242.92 373.469 241.435 380.219 241.435C385.799 241.435 390.479 242.515 394.259 244.675C398.129 246.745 401.009 249.715 402.899 253.585C404.879 257.365 405.869 261.775 405.869 266.815C405.869 270.415 405.329 274.375 404.249 278.695C403.259 282.925 401.684 287.155 399.524 291.385C397.454 295.525 394.799 299.305 391.559 302.725C388.319 306.145 384.494 308.89 380.084 310.96C375.764 313.03 370.859 314.065 365.369 314.065ZM366.719 303.265C371.129 303.265 374.999 302.095 378.329 299.755C381.659 297.415 384.449 294.445 386.699 290.845C388.949 287.155 390.659 283.33 391.829 279.37C392.999 275.32 393.584 271.585 393.584 268.165C393.584 264.655 392.999 261.73 391.829 259.39C390.659 257.05 388.994 255.295 386.834 254.125C384.674 252.865 382.109 252.235 379.139 252.235C374.639 252.235 370.679 253.405 367.259 255.745C363.839 257.995 360.959 260.92 358.619 264.52C356.369 268.12 354.659 271.9 353.489 275.86C352.319 279.82 351.734 283.465 351.734 286.795C351.734 290.305 352.319 293.32 353.489 295.84C354.749 298.27 356.504 300.115 358.754 301.375C361.004 302.635 363.659 303.265 366.719 303.265Z" fill="white"/>
</g>
<defs>
<clipPath id="clip0_70_110">
<rect width="500" height="500" fill="white"/>
</clipPath>
</defs>
</svg>
